<svg width="446" height="340" viewBox="0 0 446 340" fill="none" xmlns="http://www.w3.org/2000/svg">
<path d="M321.588 83.2347L318.846 86.1469L321.588 83.2347ZM414.838 338.62C416.489 340.088 419.017 339.94 420.486 338.289L444.412 311.391C445.881 309.741 445.733 307.212 444.082 305.744C442.431 304.276 439.903 304.424 438.435 306.074L417.167 329.984L393.257 308.716C391.607 307.247 389.078 307.395 387.61 309.046C386.142 310.696 386.29 313.225 387.94 314.693L414.838 338.62ZM1.37867 18.292C2.58566 22.1055 2.58488 22.1058 2.58482 22.1058C2.58575 22.1055 2.58639 22.1053 2.58825 22.1047C2.59196 22.1035 2.59853 22.1015 2.60792 22.0985C2.62672 22.0927 2.65685 22.0833 2.69819 22.0705C2.78088 22.0449 2.90843 22.0057 3.07992 21.9538C3.42291 21.8501 3.94162 21.6957 4.6286 21.4981C6.00263 21.1028 8.0495 20.5345 10.7098 19.8525C16.0309 18.4884 23.8028 16.6702 33.5505 14.8711C53.0529 11.2716 80.4245 7.75593 111.876 8.09189C174.805 8.76407 253.739 24.8409 318.846 86.1469L324.33 80.3226C257.264 17.172 176.094 0.777383 111.961 0.0923421C79.8815 -0.250322 51.9833 3.33392 32.0985 7.004C22.1526 8.83969 14.2016 10.6987 8.72319 12.1031C5.98372 12.8054 3.86168 13.3942 2.41673 13.8099C1.69423 14.0178 1.14093 14.1824 0.764293 14.2963C0.575973 14.3532 0.431803 14.3975 0.332725 14.4282C0.283185 14.4435 0.244918 14.4554 0.218036 14.4638C0.204593 14.4681 0.194002 14.4714 0.186267 14.4738C0.182401 14.475 0.178748 14.4762 0.176815 14.4768C0.173884 14.4777 0.171668 14.4784 1.37867 18.292ZM318.846 86.1469C360.928 125.771 384.675 187.938 397.867 240.727C404.442 267.041 408.355 290.854 410.622 308.088C411.756 316.702 412.477 323.665 412.915 328.466C413.134 330.866 413.281 332.725 413.374 333.98C413.421 334.607 413.453 335.083 413.474 335.4C413.485 335.558 413.492 335.677 413.497 335.755C413.5 335.794 413.501 335.822 413.502 335.841C413.503 335.85 413.503 335.856 413.504 335.86C413.504 335.862 413.504 335.863 413.504 335.864C413.504 335.865 413.504 335.864 417.497 335.631C421.49 335.397 421.49 335.396 421.49 335.394C421.49 335.392 421.49 335.389 421.489 335.386C421.489 335.379 421.489 335.37 421.488 335.359C421.486 335.335 421.484 335.302 421.482 335.258C421.476 335.17 421.468 335.041 421.457 334.873C421.435 334.536 421.4 334.038 421.352 333.39C421.256 332.092 421.105 330.187 420.882 327.739C420.436 322.844 419.703 315.774 418.554 307.044C416.257 289.588 412.295 265.465 405.628 238.788C392.335 185.595 368.128 121.563 324.33 80.3226L318.846 86.1469Z" fill="#A13F68"/>
</svg>
